<?xml version='1.0' encoding='UTF-8'?>
<svg xmlns="http://www.w3.org/2000/svg" version="1.1" width="512" height="512">
<path d="M0 0C2.9 0 5.7 -0.0 8.6 -0.0C21.9 -0.1 34.6 1.1 47.7 3.3C48.8 3.5 50.0 3.7 51.1 3.9C94.4 11.7 135.5 31.6 168.7 60.3C169.4 60.9 170.2 61.6 171.0 62.2C184.5 74.0 197.1 86.8 207.7 101.3C208.6 102.5 209.4 103.6 210.3 104.8C216.3 113.0 221.7 121.5 226.7 130.3C227.1 130.9 227.4 131.6 227.8 132.2C249.3 169.8 259.2 212.4 259.0 255.4C259 256.9 259 256.9 259 258.5C259.0 272.9 258.6 287.1 255.7 301.3C255.5 302.2 255.3 303.1 255.2 304.0C253.9 310.5 252.4 316.9 250.7 323.3C250.5 324.1 250.3 325.0 250.1 325.8C236.7 377.1 204.1 426.2 161.7 458.3C161.2 458.7 160.6 459.1 160.1 459.6C118.6 491.5 66.0 512.6 13.2 512.4C12.2 512.4 11.2 512.3 10.1 512.3C7.7 512.3 5.2 512.3 2.7 512.3C2.7 505.5 2.7 498.7 2.6 491.9C2.6 489.5 2.6 487.2 2.6 484.9C2.6 481.6 2.6 478.2 2.6 474.9C2.6 473.9 2.6 472.8 2.6 471.7C2.6 470.8 2.6 469.8 2.6 468.8C2.6 468.0 2.6 467.1 2.6 466.3C2.7 464.3 2.7 464.3 3.7 463.3C5.6 463.2 7.4 463.1 9.3 463.1C40.7 462.1 71.2 453.8 98.9 439.2C100.5 438.4 102.0 437.6 103.6 436.9C117.2 429.8 129.3 420.4 140.7 410.3C141.6 409.6 142.4 408.8 143.3 408.0C180.9 375.3 204.0 325.6 208.7 276.3C208.9 273.4 208.9 270.6 208.9 267.7C208.9 266.9 209.0 266.0 209.0 265.2C209.3 227.8 203.1 193.4 185.6 160.1C184.8 158.5 184.0 157.0 183.2 155.4C176.2 141.8 166.9 129.7 156.7 118.3C156.2 117.8 155.8 117.3 155.3 116.7C149.8 110.5 144.2 104.5 137.7 99.3C136.7 98.5 135.7 97.7 134.7 96.8C92.2 62.3 37.4 45.0 -17.3 50.3C-57.2 54.5 -96.4 69.5 -127.3 95.3C-127.9 95.8 -128.5 96.3 -129.1 96.8C-135.8 102.4 -142.4 107.9 -148.3 114.3C-148.8 114.9 -149.4 115.5 -149.9 116.1C-185.6 155.7 -201.7 203.7 -204.3 256.3C-220.5 256.3 -236.6 256.3 -253.3 256.3C-253.3 230.8 -253.3 230.8 -252.1 222.9C-251.9 221.5 -251.9 221.5 -251.7 220.0C-244.5 172.1 -225.0 127.1 -193.3 90.3C-192.7 89.6 -192.0 88.8 -191.4 88.1C-179.6 74.6 -166.8 61.9 -152.3 51.3C-151.2 50.5 -150 49.6 -148.9 48.7C-140.7 42.7 -132.1 37.3 -123.3 32.3C-122.7 32.0 -122.0 31.6 -121.4 31.2C-95.4 16.3 -65.9 6.7 -36.3 2.3C-35.1 2.1 -33.9 2.0 -32.7 1.8C-21.8 0.3 -11.0 -0.0 0 0Z" fill="#0061BE" transform="translate(253.300048828125,-0.315673828125)" />
<path d="M0 0C1.1 -0.0 1.1 -0.0 2.3 -0.0C47.8 -0.5 89.2 11.7 123.9 42.2C124.9 43.1 125.9 44.0 126.9 44.9C133.7 50.8 139.5 57.1 144.9 64.2C146.0 65.6 146.0 65.6 147.2 67.1C176.3 104.6 187.0 151.7 181.2 198.5C180.6 202.1 179.8 205.7 178.9 209.2C178.6 210.5 178.6 210.5 178.3 211.7C171.4 239.7 158.8 265.9 139 287.0C137.2 289 135.5 291.0 133.7 293.1C108.0 322.4 66.3 340.8 27.9 344.2C24.8 344.3 21.6 344.3 18.4 344.3C17.2 344.3 17.2 344.3 15.9 344.3C13.9 344.3 11.9 344.3 9.9 344.2C9.9 337.4 9.9 330.6 9.9 323.8C9.9 321.5 9.9 319.1 9.9 316.8C9.8 313.5 9.8 310.2 9.8 306.8C9.8 305.8 9.8 304.7 9.8 303.7C9.8 302.7 9.8 301.7 9.8 300.8C9.8 299.9 9.8 299.1 9.8 298.2C9.9 296.2 9.9 296.2 10.9 295.2C12.3 295.1 13.6 295.0 15.0 294.9C50.0 292.4 81.0 278.2 104.3 251.5C127.3 223.9 134.7 189.8 131.7 154.6C131.2 150 130.2 145.7 128.9 141.2C128.6 140 128.3 138.8 127.9 137.5C118.4 106.6 97.5 79.8 69.0 64.2C38.5 48.4 4.1 45.1 -28.7 55.4C-59.8 66 -85.6 88.1 -100.4 117.5C-108.9 135.2 -111.8 152.6 -113.1 172.2C-129.2 172.2 -145.4 172.2 -162.1 172.2C-162.1 150.2 -162.1 150.2 -160.4 142.3C-160.2 140.9 -160.2 140.9 -159.9 139.5C-153.7 109.1 -140.5 80.3 -119.1 57.5C-117.3 55.5 -115.6 53.4 -113.9 51.4C-86.7 20.4 -40.9 0.4 0 0Z" fill="#0061BE" transform="translate(246.06640625,83.76171875)" />
<path d="M0 0C13.7 10.7 22.7 24.9 26.2 42.0C26.6 45.9 26.7 49.7 26.7 53.7C26.7 54.7 26.6 55.7 26.6 56.8C26.2 74.0 19.6 89.0 7.7 101.6C-7.8 115.9 -25.1 120.7 -45.8 120.3C-62.8 119.6 -78.3 111.4 -89.8 99.0C-103.8 81.6 -107.3 63.9 -105.8 42.0C-103.8 26.4 -94.2 11.6 -82.2 1.7C-57.5 -16.2 -25.3 -18.1 0 0Z" fill="#0061BE" transform="translate(295.84375,202.03515625)" />
</svg>