<?xml version='1.0' encoding='UTF-8'?>
<svg xmlns="http://www.w3.org/2000/svg" version="1.1" width="160" height="160">
<path d="M0 0C52.8 0 105.6 0 160 0C160 52.8 160 105.6 160 160C107.2 160 54.4 160 0 160C0 107.2 0 54.4 0 0Z" fill="#D22322" transform="translate(0,0)" />
<path d="M0 0C1.4 -0.0 1.4 -0.0 2.8 -0.0C5.8 -0.0 8.8 -0.0 11.8 -0.0C13.9 -0.0 16.0 -0.0 18.0 -0.0C22.4 -0.0 26.8 -0.0 31.2 0C36.8 0.0 42.4 0 48.0 -0.0C52.3 -0.0 56.7 -0.0 61.0 -0.0C63.0 -0.0 65.1 -0.0 67.2 -0.0C70.1 -0.0 73.0 -0.0 75.9 0C76.7 0 77.6 -0.0 78.5 -0.0C82.3 0.0 84.6 0.3 88.0 2.2C90.5 5.2 90.6 6.7 90.6 10.6C90.7 11.8 90.7 13.0 90.7 14.3C90.7 15.6 90.7 16.9 90.7 18.3C90.7 19.7 90.7 21.0 90.7 22.4C90.7 25.3 90.7 28.2 90.6 31.0C90.6 34.7 90.6 38.4 90.7 42.1C90.7 44.9 90.7 47.7 90.7 50.6C90.7 52.6 90.7 54.6 90.7 56.6C90.6 66.8 90.6 66.8 87.8 69.9C84.9 71.6 83.5 72.1 80.1 72C78.8 72.0 78.8 72.0 77.4 72.0C76.5 71.9 75.6 71.9 74.7 71.8C73.8 71.8 72.8 71.8 71.9 71.8C69.6 71.7 67.3 71.6 65 71.5C65 76.1 65 80.8 65 85.5C56.5 80.0 56.5 80.0 54.2 77.8C47.7 72.0 42.5 71.6 34 71.8C32.8 71.8 31.6 71.8 30.3 71.7C26.4 71.7 22.6 71.8 18.7 71.8C14.8 71.9 10.9 71.9 7 71.9C4.6 71.9 2.2 71.9 -0.2 71.9C-1.3 71.9 -2.4 71.9 -3.6 72.0C-4.5 72.0 -5.5 72.0 -6.5 72.0C-9.9 71.4 -11 70.3 -13 67.5C-13.5 64.7 -13.5 64.7 -13.5 61.3C-13.5 60.1 -13.5 58.8 -13.6 57.6C-13.6 56.2 -13.5 54.8 -13.5 53.5C-13.5 52.1 -13.5 50.7 -13.5 49.3C-13.6 46.4 -13.5 43.4 -13.5 40.5C-13.5 36.8 -13.5 33.0 -13.5 29.3C-13.6 26.4 -13.5 23.5 -13.5 20.6C-13.5 19.2 -13.5 17.9 -13.5 16.5C-13.6 14.6 -13.5 12.6 -13.5 10.7C-13.5 9.6 -13.5 8.5 -13.5 7.4C-13 4.5 -13 4.5 -11.5 2.2C-7.8 -0.3 -4.4 -0.0 0 0Z" fill="#FEFCFC" transform="translate(42.003662109375,42.482421875)" />
<path d="M0 0C13.2 0 26.4 0 40 0C40 5.0 40 9.9 40 15C36.0 15 32.1 15 28 15C28 27.5 28 40.1 28 53C22.7 53 17.4 53 12 53C12 40.5 12 27.9 12 15C8.0 15 4.1 15 0 15C0 10.1 0 5.1 0 0Z" fill="#D32B2A" transform="translate(75,52)" />
<path d="M0 0C5.3 0 10.6 0 16 0C16 17.2 16 34.3 16 52C10.7 52 5.4 52 0 52C0 34.8 0 17.7 0 0Z" fill="#D32B2A" transform="translate(50,52)" />
</svg>