<?xml version='1.0' encoding='UTF-8'?>
<svg xmlns="http://www.w3.org/2000/svg" viewBox="0 0 24 24" fill-rule="evenodd" stroke-linejoin="round" clip-rule="evenodd" stroke-miterlimit="1.414"><path d="M24 6c0 -3.3 -2.7 -6 -6 -6H6C2.7 0 0 2.7 0 6v12c0 3.3 2.7 6 6 6h12c3.3 0 6 -2.7 6 -6V6z" fill="none" /><clipPath id="prefix__a"><path d="M24 6c0 -3.3 -2.7 -6 -6 -6H6C2.7 0 0 2.7 0 6v12c0 3.3 2.7 6 6 6h12c3.3 0 6 -2.7 6 -6V6z" /></clipPath><g clip-path="url(#prefix__a)"><path d="M24 0H0l12 12L24 0z" fill="gold" /><path d="M0 0v24l12 -12L0 0z" fill="#a5c700" /><path d="M0 24h24L12 12L0 24z" fill="#ff8a00" /><path d="M24 24V0L12 12l12 12z" fill="#66aefd" /><path d="M22.5 -1.5L12 9l3 3L25.5 1.5l-3 -3z" fill="url(#prefix___Linear2)" /><path d="M25.5 22.5L15 12l-3 3l10.5 10.5l3 -3z" fill="url(#prefix___Linear3)" /><path d="M1.5 25.5L12 15l-3 -3l-10.5 10.5l3 3z" fill="url(#prefix___Linear4)" /><path d="M-1.5 1.5L9 12l3 -3L1.5 -1.5l-3 3z" fill="url(#prefix___Linear5)" /></g><path d="M21.8 5.9c0 -2.2 -1.8 -4 -4 -4H6.3c-2.2 0 -4 1.8 -4 4v11.5c0 2.2 1.8 4 4 4h11.5c2.2 0 4 -1.8 4 -4V5.9z" fill="#ffffff" /><path d="M4.6 6H6V4.2h1.4V6h1.7V4.2h1.4V6h1.4v1.7h-1.4v1.9h1.4v1.7h-1.4v1.8H9.1v-1.8H7.4v1.8H6v-1.8H4.6V9.6H6V7.7H4.6V6zm2.8 1.7v1.9h1.7V7.7H7.4zM10 14v6h4v-2h-2v-2h2v-2H10zm5 0v6h2v-3l1 3h2v-6h-2v3l-1 -3h-2zM7 18l0 2l2 0l0 -2l-2 0Z" fill="#737373" /><defs><linearGradient id="prefix___Linear2" x1="0" y1="0" x2="1" y2="0" gradientUnits="userSpaceOnUse" gradientTransform="matrix(-2.99995 -3 3 -2.99995 23.997 3.003)"><stop offset="0" stop-color="#66aefd" /><stop offset="1" stop-color="gold" /></linearGradient><linearGradient id="prefix___Linear3" x1="0" y1="0" x2="1" y2="0" gradientUnits="userSpaceOnUse" gradientTransform="matrix(3 -2.99995 2.99995 3 20.999 24.003)"><stop offset="0" stop-color="#ff8a00" /><stop offset="1" stop-color="#66aefd" /></linearGradient><linearGradient id="prefix___Linear4" x1="0" y1="0" x2="1" y2="0" gradientUnits="userSpaceOnUse" gradientTransform="matrix(2.99995 3 -3 2.99995 -.003 21.001)"><stop offset="0" stop-color="#a5c700" /><stop offset="1" stop-color="#ff8a00" /></linearGradient><linearGradient id="prefix___Linear5" x1="0" y1="0" x2="1" y2="0" gradientUnits="userSpaceOnUse" gradientTransform="matrix(-3 2.99995 -2.99995 -3 2.997 .003)"><stop offset="0" stop-color="gold" /><stop offset="1" stop-color="#a5c700" /></linearGradient></defs></svg>